<svg width="15" height="18" viewBox="0 0 15 18" fill="none" xmlns="http://www.w3.org/2000/svg">
<path opacity="0.6" d="M9.20312 15.9218C9.20312 17.0678 8.27092 18 7.125 18C5.97908 18 5.04688 17.0678 5.04688 15.9218C5.04688 15.4684 5.19048 15.0372 5.46252 14.675C5.57458 14.5255 5.75087 14.4375 5.93751 14.4375H8.31252C8.49917 14.4375 8.67549 14.5255 8.78755 14.675C9.05947 15.0372 9.20312 15.4684 9.20312 15.9218Z" fill="white"/>
<path opacity="0.6" d="M7.12523 3.56246C8.10897 3.56246 8.90646 2.76498 8.90646 1.78123C8.90646 0.797484 8.10897 0 7.12523 0C6.14148 0 5.34399 0.797484 5.34399 1.78123C5.34399 2.76498 6.14148 3.56246 7.12523 3.56246Z" fill="white"/>
<path d="M14.25 12.6563V15.0312C14.25 15.3593 13.9843 15.625 13.6563 15.625H0.593744C0.265714 15.625 0 15.3593 0 15.0312V12.6563C0 12.3282 0.265714 12.0625 0.593744 12.0625C1.24871 12.0625 1.78127 11.53 1.78127 10.875V6.77033C1.78127 3.80567 4.16999 1.38536 7.10573 1.37497H7.12538C8.54925 1.37497 9.88784 1.92794 10.8968 2.9336C11.9106 3.94371 12.4687 5.28783 12.4687 6.71874V10.875C12.4687 11.53 13.0013 12.0625 13.6563 12.0625C13.9843 12.0625 14.25 12.3282 14.25 12.6563Z" fill="white"/>
</svg>
