<svg width="64" height="64" viewBox="0 0 64 64" fill="none" xmlns="http://www.w3.org/2000/svg">
<path fill-rule="evenodd" clip-rule="evenodd" d="M20 15.9998C20 15.6462 20.1405 15.3071 20.3905 15.057C20.6406 14.807 20.9797 14.6665 21.3333 14.6665H28C29.0833 14.6664 30.141 14.9963 31.0323 15.6122C31.9235 16.228 32.6061 17.1007 32.9891 18.1141C33.3722 19.1274 33.4376 20.2334 33.1765 21.2848C32.9155 22.3363 32.3405 23.2833 31.528 23.9998C32.3405 24.7164 32.9155 25.6634 33.1765 26.7148C33.4376 27.7663 33.3722 28.8722 32.9891 29.8856C32.6061 30.899 31.9235 31.7717 31.0323 32.3875C30.141 33.0034 29.0833 33.3332 28 33.3332H21.3333C20.9797 33.3332 20.6406 33.1927 20.3905 32.9426C20.1405 32.6926 20 32.3535 20 31.9998V15.9998ZM28 22.6665C28.7072 22.6665 29.3855 22.3856 29.8856 21.8855C30.3857 21.3854 30.6667 20.7071 30.6667 19.9998C30.6667 19.2926 30.3857 18.6143 29.8856 18.1142C29.3855 17.6141 28.7072 17.3332 28 17.3332H22.6667V22.6665H28ZM30.6667 27.9998C30.6667 28.7071 30.3857 29.3854 29.8856 29.8855C29.3855 30.3856 28.7072 30.6665 28 30.6665H22.6667V25.3332H28C28.7072 25.3332 29.3855 25.6141 29.8856 26.1142C30.3857 26.6143 30.6667 27.2926 30.6667 27.9998Z" fill="#343A40"/>
<path d="M36.0003 22.6666C35.6467 22.6666 35.3076 22.8071 35.0575 23.0571C34.8075 23.3072 34.667 23.6463 34.667 23.9999C34.667 24.3535 34.8075 24.6927 35.0575 24.9427C35.3076 25.1928 35.6467 25.3333 36.0003 25.3333H38.0003V27.3333C38.0003 27.6869 38.1408 28.026 38.3908 28.2761C38.6409 28.5261 38.98 28.6666 39.3337 28.6666C39.6873 28.6666 40.0264 28.5261 40.2765 28.2761C40.5265 28.026 40.667 27.6869 40.667 27.3333V25.3333H42.667C43.0206 25.3333 43.3598 25.1928 43.6098 24.9427C43.8599 24.6927 44.0003 24.3535 44.0003 23.9999C44.0003 23.6463 43.8599 23.3072 43.6098 23.0571C43.3598 22.8071 43.0206 22.6666 42.667 22.6666H40.667V20.6666C40.667 20.313 40.5265 19.9738 40.2765 19.7238C40.0264 19.4737 39.6873 19.3333 39.3337 19.3333C38.98 19.3333 38.6409 19.4737 38.3908 19.7238C38.1408 19.9738 38.0003 20.313 38.0003 20.6666V22.6666H36.0003Z" fill="#343A40"/>
<path fill-rule="evenodd" clip-rule="evenodd" d="M13.3335 45.3732C13.3335 48.2972 15.7202 50.6665 18.6668 50.6665H24.0002V53.3332H30.6668V58.6665H33.3335V53.3332H40.0002V50.6665H45.3335C48.2802 50.6665 50.6668 48.2972 50.6668 45.3732V13.7705C50.6668 10.8479 48.2802 8.47721 45.3335 8.47721H37.3335L35.8242 6.93721C35.3251 6.42958 34.7299 6.0264 34.0734 5.75118C33.4168 5.47597 32.7121 5.33423 32.0002 5.33423C31.2883 5.33423 30.5835 5.47597 29.927 5.75118C29.2704 6.0264 28.6753 6.42958 28.1762 6.93721L26.6668 8.47721H18.6668C15.7202 8.47721 13.3335 10.8465 13.3335 13.7705V45.3732ZM37.3335 11.1452C36.9787 11.1453 36.6274 11.0746 36.3002 10.9373C35.973 10.7999 35.6765 10.5986 35.4282 10.3452L33.9202 8.80255C33.6695 8.54833 33.3708 8.34647 33.0414 8.20869C32.712 8.0709 32.3585 7.99995 32.0015 7.99995C31.6445 7.99995 31.291 8.0709 30.9616 8.20869C30.6322 8.34647 30.3335 8.54833 30.0828 8.80255L28.5735 10.3439C28.3251 10.5973 28.0286 10.7986 27.7015 10.9359C27.3743 11.0733 27.023 11.144 26.6682 11.1439H18.6682C17.1748 11.1439 16.0015 12.3385 16.0015 13.7705V38.6265C17.6464 38.6089 19.2914 38.6356 20.9348 38.7065L21.6415 38.7332C23.3535 38.7972 24.9495 38.8572 26.5108 38.8252C30.0135 38.7505 33.2335 38.2039 36.6575 36.1839C40.8148 33.7305 44.3348 34.4665 46.7682 35.8825C47.2188 36.1452 47.6308 36.4292 48.0015 36.7172V13.7692C48.0015 12.3385 46.8282 11.1425 45.3348 11.1425H37.3348L37.3335 11.1452Z" fill="#343A40"/>
</svg>
