<svg width="64" height="64" viewBox="0 0 64 64" fill="none" xmlns="http://www.w3.org/2000/svg">
<path fill-rule="evenodd" clip-rule="evenodd" d="M27.8973 14.1533C27.796 13.9104 27.6251 13.7028 27.4061 13.5569C27.1871 13.4109 26.9298 13.333 26.6666 13.333C26.4034 13.333 26.1461 13.4109 25.9271 13.5569C25.7081 13.7028 25.5372 13.9104 25.4359 14.1533L20.4466 26.1266C20.4386 26.1451 20.4311 26.1638 20.4239 26.1826L18.7693 30.1533C18.6331 30.4797 18.6322 30.8468 18.7667 31.1738C18.9013 31.5009 19.1602 31.7611 19.4866 31.8973C19.813 32.0334 20.1801 32.0343 20.5072 31.8998C20.8342 31.7653 21.0945 31.5063 21.2306 31.1799L22.5559 27.9999H30.7773L32.1026 31.1799C32.2388 31.5063 32.499 31.7653 32.826 31.8998C33.1531 32.0343 33.5202 32.0334 33.8466 31.8973C34.173 31.7611 34.4319 31.5009 34.5665 31.1738C34.701 30.8468 34.7001 30.4797 34.5639 30.1533L32.9093 26.1826C32.9021 26.1638 32.8946 26.1451 32.8866 26.1266L27.8973 14.1533ZM26.6666 18.1333L29.6666 25.3333H23.6666L26.6666 18.1333Z" fill="#343A40"/>
<path d="M34.667 22.6666C34.667 22.313 34.8075 21.9738 35.0575 21.7238C35.3076 21.4737 35.6467 21.3333 36.0003 21.3333H44.0003C44.3539 21.3333 44.6931 21.4737 44.9431 21.7238C45.1932 21.9738 45.3337 22.313 45.3337 22.6666C45.3337 23.0202 45.1932 23.3593 44.9431 23.6094C44.6931 23.8594 44.3539 23.9999 44.0003 23.9999H36.0003C35.6467 23.9999 35.3076 23.8594 35.0575 23.6094C34.8075 23.3593 34.667 23.0202 34.667 22.6666Z" fill="#343A40"/>
<path fill-rule="evenodd" clip-rule="evenodd" d="M50.6668 45.3732C50.6668 48.2972 48.2802 50.6665 45.3335 50.6665H40.0002V53.3332H33.3335V58.6665H30.6668V53.3332H24.0002V50.6665H18.6668C15.7202 50.6665 13.3335 48.2972 13.3335 45.3732V13.7705C13.3335 10.8479 15.7202 8.47721 18.6668 8.47721H26.6668L28.1762 6.93721C28.6753 6.42958 29.2704 6.0264 29.927 5.75118C30.5835 5.47597 31.2883 5.33423 32.0002 5.33423C32.7121 5.33423 33.4168 5.47597 34.0734 5.75118C34.7299 6.0264 35.3251 6.42958 35.8242 6.93721L37.3335 8.47721H45.3335C48.2802 8.47721 50.6668 10.8465 50.6668 13.7705V45.3732ZM35.4282 10.3452C35.6766 10.5986 35.973 10.7999 36.3002 10.9373C36.6274 11.0746 36.9787 11.1453 37.3335 11.1452H45.3335C46.8268 11.1452 48.0002 12.3399 48.0002 13.7719V36.7185C47.6079 36.4139 47.1959 36.1355 46.7668 35.8852C44.3335 34.4692 40.8135 33.7332 36.6562 36.1865C33.2322 38.2065 30.0122 38.7532 26.5095 38.8265C24.9482 38.8599 23.3522 38.7999 21.6415 38.7345L20.9348 38.7079C19.2909 38.6373 17.6455 38.6111 16.0002 38.6292V13.7692C16.0002 12.3385 17.1735 11.1425 18.6668 11.1425H26.6668C27.0217 11.1427 27.373 11.072 27.7001 10.9346C28.0273 10.7972 28.3238 10.596 28.5722 10.3425L30.0815 8.80255C30.3322 8.54833 30.6309 8.34647 30.9603 8.20869C31.2897 8.0709 31.6431 7.99995 32.0002 7.99995C32.3572 7.99995 32.7107 8.0709 33.0401 8.20869C33.3694 8.34647 33.6681 8.54833 33.9188 8.80255L35.4282 10.3439V10.3452Z" fill="#343A40"/>
</svg>
