<svg width="64" height="64" viewBox="0 0 64 64" fill="none" xmlns="http://www.w3.org/2000/svg">
<path fill-rule="evenodd" clip-rule="evenodd" d="M18.667 24C18.667 21.8783 19.5098 19.8434 21.0101 18.3431C22.5104 16.8429 24.5453 16 26.667 16C28.7887 16 30.8236 16.8429 32.3238 18.3431C33.8241 19.8434 34.667 21.8783 34.667 24C34.667 26.1217 33.8241 28.1566 32.3238 29.6569C30.8236 31.1571 28.7887 32 26.667 32C24.5453 32 22.5104 31.1571 21.0101 29.6569C19.5098 28.1566 18.667 26.1217 18.667 24ZM26.667 18.6667C25.2525 18.6667 23.896 19.2286 22.8958 20.2288C21.8956 21.229 21.3337 22.5855 21.3337 24C21.3337 25.4145 21.8956 26.771 22.8958 27.7712C23.896 28.7714 25.2525 29.3333 26.667 29.3333C28.0815 29.3333 29.438 28.7714 30.4382 27.7712C31.4384 26.771 32.0003 25.4145 32.0003 24C32.0003 22.5855 31.4384 21.229 30.4382 20.2288C29.438 19.2286 28.0815 18.6667 26.667 18.6667Z" fill="#343A40"/>
<path d="M37.3333 22.6666C36.9797 22.6666 36.6406 22.8071 36.3905 23.0571C36.1405 23.3072 36 23.6463 36 23.9999C36 24.3535 36.1405 24.6927 36.3905 24.9427C36.6406 25.1928 36.9797 25.3333 37.3333 25.3333H39.3333V27.3333C39.3333 27.6869 39.4738 28.026 39.7239 28.2761C39.9739 28.5261 40.313 28.6666 40.6667 28.6666C41.0203 28.6666 41.3594 28.5261 41.6095 28.2761C41.8595 28.026 42 27.6869 42 27.3333V25.3333H44C44.3536 25.3333 44.6928 25.1928 44.9428 24.9427C45.1929 24.6927 45.3333 24.3535 45.3333 23.9999C45.3333 23.6463 45.1929 23.3072 44.9428 23.0571C44.6928 22.8071 44.3536 22.6666 44 22.6666H42V20.6666C42 20.313 41.8595 19.9738 41.6095 19.7238C41.3594 19.4737 41.0203 19.3333 40.6667 19.3333C40.313 19.3333 39.9739 19.4737 39.7239 19.7238C39.4738 19.9738 39.3333 20.313 39.3333 20.6666V22.6666H37.3333Z" fill="#343A40"/>
<path fill-rule="evenodd" clip-rule="evenodd" d="M13.3335 45.3732C13.3335 48.2972 15.7202 50.6665 18.6668 50.6665H24.0002V53.3332H30.6668V58.6665H33.3335V53.3332H40.0002V50.6665H45.3335C48.2802 50.6665 50.6668 48.2972 50.6668 45.3732V13.7705C50.6668 10.8479 48.2802 8.47721 45.3335 8.47721H37.3335L35.8242 6.93721C35.3251 6.42958 34.7299 6.0264 34.0734 5.75118C33.4168 5.47597 32.7121 5.33423 32.0002 5.33423C31.2883 5.33423 30.5835 5.47597 29.927 5.75118C29.2704 6.0264 28.6753 6.42958 28.1762 6.93721L26.6668 8.47721H18.6668C15.7202 8.47721 13.3335 10.8465 13.3335 13.7705V45.3732ZM37.3335 11.1452C36.9787 11.1453 36.6274 11.0746 36.3002 10.9373C35.973 10.7999 35.6765 10.5986 35.4282 10.3452L33.9202 8.80255C33.6695 8.54833 33.3708 8.34647 33.0414 8.20869C32.712 8.0709 32.3585 7.99995 32.0015 7.99995C31.6445 7.99995 31.291 8.0709 30.9616 8.20869C30.6322 8.34647 30.3335 8.54833 30.0828 8.80255L28.5735 10.3439C28.3251 10.5973 28.0286 10.7986 27.7015 10.9359C27.3743 11.0733 27.023 11.144 26.6682 11.1439H18.6682C17.1748 11.1439 16.0015 12.3385 16.0015 13.7705V38.6265C17.6464 38.6089 19.2914 38.6356 20.9348 38.7065L21.6415 38.7332C23.3535 38.7972 24.9495 38.8572 26.5108 38.8252C30.0135 38.7505 33.2335 38.2039 36.6575 36.1839C40.8148 33.7305 44.3348 34.4665 46.7682 35.8825C47.2188 36.1452 47.6308 36.4292 48.0015 36.7172V13.7692C48.0015 12.3385 46.8282 11.1425 45.3348 11.1425H37.3348L37.3335 11.1452Z" fill="#343A40"/>
</svg>
