<svg width="64" height="64" viewBox="0 0 64 64" fill="none" xmlns="http://www.w3.org/2000/svg">
<path fill-rule="evenodd" clip-rule="evenodd" d="M26.667 16C24.5453 16 22.5104 16.8429 21.0101 18.3431C19.5098 19.8434 18.667 21.8783 18.667 24C18.667 26.1217 19.5098 28.1566 21.0101 29.6569C22.5104 31.1571 24.5453 32 26.667 32C28.7887 32 30.8236 31.1571 32.3238 29.6569C33.8241 28.1566 34.667 26.1217 34.667 24C34.667 21.8783 33.8241 19.8434 32.3238 18.3431C30.8236 16.8429 28.7887 16 26.667 16ZM21.3337 24C21.3337 22.5855 21.8956 21.229 22.8958 20.2288C23.896 19.2286 25.2525 18.6667 26.667 18.6667C28.0815 18.6667 29.438 19.2286 30.4382 20.2288C31.4384 21.229 32.0003 22.5855 32.0003 24C32.0003 25.4145 31.4384 26.771 30.4382 27.7712C29.438 28.7714 28.0815 29.3333 26.667 29.3333C25.2525 29.3333 23.896 28.7714 22.8958 27.7712C21.8956 26.771 21.3337 25.4145 21.3337 24Z" fill="#343A40"/>
<path d="M36 23.9998C36 23.6462 36.1405 23.3071 36.3905 23.057C36.6406 22.807 36.9797 22.6665 37.3333 22.6665H44C44.3536 22.6665 44.6928 22.807 44.9428 23.057C45.1929 23.3071 45.3333 23.6462 45.3333 23.9998C45.3333 24.3535 45.1929 24.6926 44.9428 24.9426C44.6928 25.1927 44.3536 25.3332 44 25.3332H37.3333C36.9797 25.3332 36.6406 25.1927 36.3905 24.9426C36.1405 24.6926 36 24.3535 36 23.9998Z" fill="#343A40"/>
<path fill-rule="evenodd" clip-rule="evenodd" d="M50.6668 45.3732C50.6668 48.2972 48.2802 50.6665 45.3335 50.6665H40.0002V53.3332H33.3335V58.6665H30.6668V53.3332H24.0002V50.6665H18.6668C15.7202 50.6665 13.3335 48.2972 13.3335 45.3732V13.7705C13.3335 10.8479 15.7202 8.47721 18.6668 8.47721H26.6668L28.1762 6.93721C28.6753 6.42958 29.2704 6.0264 29.927 5.75118C30.5835 5.47597 31.2883 5.33423 32.0002 5.33423C32.7121 5.33423 33.4168 5.47597 34.0734 5.75118C34.7299 6.0264 35.3251 6.42958 35.8242 6.93721L37.3335 8.47721H45.3335C48.2802 8.47721 50.6668 10.8465 50.6668 13.7705V45.3732ZM35.4282 10.3452C35.6765 10.5986 35.973 10.7999 36.3002 10.9373C36.6274 11.0746 36.9787 11.1453 37.3335 11.1452H45.3335C46.8268 11.1452 48.0002 12.3399 48.0002 13.7719V36.7185C47.6079 36.4139 47.1959 36.1355 46.7668 35.8852C44.3335 34.4692 40.8135 33.7332 36.6562 36.1865C33.2322 38.2065 30.0122 38.7532 26.5095 38.8265C24.9482 38.8599 23.3522 38.7999 21.6415 38.7345L20.9348 38.7079C19.2909 38.6373 17.6455 38.6111 16.0002 38.6292V13.7692C16.0002 12.3385 17.1735 11.1425 18.6668 11.1425H26.6668C27.0217 11.1427 27.373 11.072 27.7001 10.9346C28.0273 10.7972 28.3238 10.596 28.5722 10.3425L30.0815 8.80255C30.3322 8.54833 30.6309 8.34647 30.9603 8.20869C31.2897 8.0709 31.6431 7.99995 32.0002 7.99995C32.3572 7.99995 32.7107 8.0709 33.04 8.20869C33.3694 8.34647 33.6681 8.54833 33.9188 8.80255L35.4282 10.3439V10.3452Z" fill="#343A40"/>
</svg>
