<svg width="64" height="64" viewBox="0 0 64 64" fill="none" xmlns="http://www.w3.org/2000/svg">
<path d="M27.1842 7.37993C27.8083 6.73279 28.5564 6.21806 29.3838 5.8665C30.2113 5.51493 31.1011 5.33374 32.0002 5.33374C32.8992 5.33374 33.789 5.51493 34.6165 5.8665C35.444 6.21806 36.1921 6.73279 36.8162 7.37993L37.5202 8.1106H44.4402C47.8708 8.1106 50.6668 10.8759 50.6668 14.3053V20.6666H48.0002V14.3053C47.9981 13.8399 47.9043 13.3794 47.7243 12.9502C47.5442 12.5211 47.2814 12.1316 46.9508 11.804C46.6203 11.4763 46.2284 11.2171 45.7976 11.0409C45.3668 10.8647 44.9056 10.7752 44.4402 10.7773H36.9522C36.7728 10.7771 36.5954 10.7408 36.4305 10.6704C36.2655 10.6001 36.1164 10.4972 35.9922 10.3679L34.8948 9.22793C34.5195 8.83929 34.0698 8.5302 33.5725 8.31909C33.0752 8.10799 32.5404 7.99919 32.0002 7.99919C31.4599 7.99919 30.9252 8.10799 30.4278 8.31909C29.9305 8.5302 29.4808 8.83929 29.1055 9.22793L28.0082 10.3679C27.8839 10.4972 27.7348 10.6001 27.5699 10.6704C27.4049 10.7408 27.2275 10.7771 27.0482 10.7773H20.0002C17.7828 10.7773 16.0002 12.5613 16.0002 14.7426V38.6266C17.645 38.609 19.2901 38.6357 20.9335 38.7066L21.6402 38.7333C23.3522 38.7973 24.9482 38.8573 26.5095 38.8253C30.0122 38.7506 33.2322 38.2039 36.6562 36.1839C40.8135 33.7306 44.3335 34.4666 46.7668 35.8826C47.2175 36.1453 47.6295 36.4293 48.0002 36.7173V29.9999H50.6668V44.0346C50.6668 47.7066 47.6735 50.6666 44.0002 50.6666H40.0002V53.3333H33.3335V58.6666H30.6668V53.3333H24.0002V50.6666H20.0002C16.3268 50.6666 13.3335 47.7066 13.3335 44.0346V14.7413C13.3335 11.0719 16.3268 8.1106 20.0002 8.1106H26.4802L27.1842 7.37993Z" fill="#343A40"/>
<path fill-rule="evenodd" clip-rule="evenodd" d="M25.888 19.4665C25.7841 19.2291 25.6132 19.0272 25.3963 18.8854C25.1794 18.7436 24.9259 18.6681 24.6667 18.6681C24.4076 18.6681 24.154 18.7436 23.9371 18.8854C23.7202 19.0272 23.5493 19.2291 23.4454 19.4665L19.9574 27.4398C19.949 27.4574 19.941 27.4752 19.9334 27.4932L18.7787 30.1332C18.6499 30.4549 18.6513 30.8141 18.7827 31.1347C18.9142 31.4553 19.1653 31.7122 19.4829 31.8509C19.8004 31.9895 20.1595 31.9991 20.484 31.8776C20.8086 31.7561 21.073 31.513 21.2214 31.1998L22.0387 29.3332H27.2947L28.112 31.1998C28.2604 31.513 28.5249 31.7561 28.8494 31.8776C29.1739 31.9991 29.533 31.9895 29.8506 31.8509C30.1681 31.7122 30.4192 31.4553 30.5507 31.1347C30.6821 30.8141 30.6836 30.4549 30.5547 30.1332L29.4 27.4932C29.3924 27.4752 29.3844 27.4574 29.376 27.4398L25.888 19.4665ZM24.6667 23.3265L26.128 26.6665H23.2054L24.6667 23.3265ZM32 19.9998C32 19.6462 32.1405 19.3071 32.3906 19.057C32.6406 18.807 32.9798 18.6665 33.3334 18.6665H37.5C39.6974 18.6665 41.3334 20.5398 41.3334 22.6665C41.3343 23.643 40.9884 24.588 40.3574 25.3332C40.9707 26.0532 41.3334 26.9985 41.3334 27.9998C41.3334 30.1265 39.6974 31.9998 37.5 31.9998H33.3334C32.9798 31.9998 32.6406 31.8594 32.3906 31.6093C32.1405 31.3593 32 31.0201 32 30.6665V19.9998ZM37.5 23.9998C38.064 23.9998 38.6667 23.4852 38.6667 22.6665C38.6667 21.8478 38.064 21.3332 37.5 21.3332H34.6667V23.9998H37.5ZM38.6667 27.9998C38.6667 28.8185 38.064 29.3332 37.5 29.3332H34.6667V26.6665H37.5C38.064 26.6665 38.6667 27.1812 38.6667 27.9998Z" fill="#343A40"/>
<path d="M45.3333 24C44.9797 24 44.6406 24.1405 44.3905 24.3905C44.1405 24.6406 44 24.9797 44 25.3333C44 25.687 44.1405 26.0261 44.3905 26.2761C44.6406 26.5262 44.9797 26.6667 45.3333 26.6667H49.3333C49.687 26.6667 50.0261 26.5262 50.2761 26.2761C50.5262 26.0261 50.6667 25.687 50.6667 25.3333C50.6667 24.9797 50.5262 24.6406 50.2761 24.3905C50.0261 24.1405 49.687 24 49.3333 24H45.3333Z" fill="#343A40"/>
</svg>
