<svg width="64" height="64" viewBox="0 0 64 64" fill="none" xmlns="http://www.w3.org/2000/svg">
<path fill-rule="evenodd" clip-rule="evenodd" d="M26.6666 13.3333C26.9298 13.3332 27.187 13.4111 27.406 13.557C27.625 13.7029 27.796 13.9104 27.8973 14.1533L32.8866 26.1266L32.9093 26.1826L34.5639 30.1533C34.7001 30.4796 34.701 30.8468 34.5665 31.1738C34.4319 31.5009 34.173 31.7611 33.8466 31.8973C33.5202 32.0334 33.1531 32.0343 32.826 31.8998C32.499 31.7653 32.2388 31.5063 32.1026 31.1799L30.7773 27.9999H22.5559L21.2306 31.1799C21.0945 31.5063 20.8342 31.7653 20.5072 31.8998C20.1801 32.0343 19.813 32.0334 19.4866 31.8973C19.1602 31.7611 18.9013 31.5009 18.7667 31.1738C18.6322 30.8468 18.6331 30.4796 18.7693 30.1533L20.4239 26.1826L20.4479 26.1266L25.4346 14.1533C25.536 13.9102 25.7071 13.7026 25.9264 13.5566C26.1457 13.4107 26.4032 13.333 26.6666 13.3333ZM29.6666 25.3333L26.6666 18.1333L23.6666 25.3333H29.6666Z" fill="#343A40"/>
<path d="M36.0003 21.3333C35.6467 21.3333 35.3076 21.4737 35.0575 21.7238C34.8075 21.9738 34.667 22.313 34.667 22.6666C34.667 23.0202 34.8075 23.3593 35.0575 23.6094C35.3076 23.8594 35.6467 23.9999 36.0003 23.9999H38.667V26.6666C38.667 27.0202 38.8075 27.3593 39.0575 27.6094C39.3076 27.8594 39.6467 27.9999 40.0003 27.9999C40.3539 27.9999 40.6931 27.8594 40.9431 27.6094C41.1932 27.3593 41.3337 27.0202 41.3337 26.6666V23.9999H44.0003C44.3539 23.9999 44.6931 23.8594 44.9431 23.6094C45.1932 23.3593 45.3337 23.0202 45.3337 22.6666C45.3337 22.313 45.1932 21.9738 44.9431 21.7238C44.6931 21.4737 44.3539 21.3333 44.0003 21.3333H41.3337V18.6666C41.3337 18.313 41.1932 17.9738 40.9431 17.7238C40.6931 17.4737 40.3539 17.3333 40.0003 17.3333C39.6467 17.3333 39.3076 17.4737 39.0575 17.7238C38.8075 17.9738 38.667 18.313 38.667 18.6666V21.3333H36.0003Z" fill="#343A40"/>
<path fill-rule="evenodd" clip-rule="evenodd" d="M13.3335 45.3732C13.3335 48.2972 15.7202 50.6665 18.6668 50.6665H24.0002V53.3332H30.6668V58.6665H33.3335V53.3332H40.0002V50.6665H45.3335C48.2802 50.6665 50.6668 48.2972 50.6668 45.3732V13.7705C50.6668 10.8479 48.2802 8.47721 45.3335 8.47721H37.3335L35.8242 6.93721C35.3251 6.42958 34.7299 6.0264 34.0734 5.75118C33.4168 5.47597 32.7121 5.33423 32.0002 5.33423C31.2883 5.33423 30.5835 5.47597 29.927 5.75118C29.2704 6.0264 28.6753 6.42958 28.1762 6.93721L26.6668 8.47721H18.6668C15.7202 8.47721 13.3335 10.8465 13.3335 13.7705V45.3732ZM37.3335 11.1452C36.9787 11.1453 36.6274 11.0746 36.3002 10.9373C35.973 10.7999 35.6765 10.5986 35.4282 10.3452L33.9202 8.80255C33.6695 8.54833 33.3708 8.34647 33.0414 8.20869C32.712 8.0709 32.3585 7.99995 32.0015 7.99995C31.6445 7.99995 31.291 8.0709 30.9616 8.20869C30.6322 8.34647 30.3335 8.54833 30.0828 8.80255L28.5735 10.3439C28.3251 10.5973 28.0286 10.7986 27.7015 10.9359C27.3743 11.0733 27.023 11.144 26.6682 11.1439H18.6682C17.1748 11.1439 16.0015 12.3385 16.0015 13.7705V38.6265C17.6464 38.6089 19.2914 38.6356 20.9348 38.7065L21.6415 38.7332C23.3535 38.7972 24.9495 38.8572 26.5108 38.8252C30.0135 38.7505 33.2335 38.2039 36.6575 36.1839C40.8148 33.7305 44.3348 34.4665 46.7682 35.8825C47.2188 36.1452 47.6308 36.4292 48.0015 36.7172V13.7692C48.0015 12.3385 46.8282 11.1425 45.3348 11.1425H37.3348L37.3335 11.1452Z" fill="#343A40"/>
</svg>
