<svg width="64" height="64" viewBox="0 0 64 64" fill="none" xmlns="http://www.w3.org/2000/svg">
<path fill-rule="evenodd" clip-rule="evenodd" d="M21.3333 14.6665C20.9797 14.6665 20.6406 14.807 20.3905 15.057C20.1405 15.3071 20 15.6462 20 15.9998V31.9998C20 32.3535 20.1405 32.6926 20.3905 32.9426C20.6406 33.1927 20.9797 33.3332 21.3333 33.3332H28C29.0833 33.3332 30.141 33.0034 31.0323 32.3875C31.9235 31.7717 32.6061 30.899 32.9891 29.8856C33.3722 28.8722 33.4376 27.7663 33.1765 26.7148C32.9155 25.6634 32.3405 24.7164 31.528 23.9998C32.3405 23.2833 32.9155 22.3363 33.1765 21.2848C33.4376 20.2334 33.3722 19.1274 32.9891 18.1141C32.6061 17.1007 31.9235 16.228 31.0323 15.6122C30.141 14.9963 29.0833 14.6664 28 14.6665H21.3333ZM30.6667 19.9998C30.6667 20.7071 30.3857 21.3854 29.8856 21.8855C29.3855 22.3856 28.7072 22.6665 28 22.6665H22.6667V17.3332H28C28.7072 17.3332 29.3855 17.6141 29.8856 18.1142C30.3857 18.6143 30.6667 19.2926 30.6667 19.9998ZM30.6667 27.9998C30.6667 27.2926 30.3857 26.6143 29.8856 26.1142C29.3855 25.6141 28.7072 25.3332 28 25.3332H22.6667V30.6665H28C28.7072 30.6665 29.3855 30.3856 29.8856 29.8855C30.3857 29.3854 30.6667 28.7071 30.6667 27.9998Z" fill="#343A40"/>
<path d="M34.667 23.9998C34.667 23.6462 34.8075 23.3071 35.0575 23.057C35.3076 22.807 35.6467 22.6665 36.0003 22.6665H42.667C43.0206 22.6665 43.3598 22.807 43.6098 23.057C43.8599 23.3071 44.0003 23.6462 44.0003 23.9998C44.0003 24.3535 43.8599 24.6926 43.6098 24.9426C43.3598 25.1927 43.0206 25.3332 42.667 25.3332H36.0003C35.6467 25.3332 35.3076 25.1927 35.0575 24.9426C34.8075 24.6926 34.667 24.3535 34.667 23.9998Z" fill="#343A40"/>
<path fill-rule="evenodd" clip-rule="evenodd" d="M45.3335 50.6665C48.2802 50.6665 50.6668 48.2972 50.6668 45.3732V13.7705C50.6668 10.8479 48.2802 8.47721 45.3335 8.47721H37.3335L35.8242 6.93721C35.3251 6.42958 34.7299 6.0264 34.0734 5.75118C33.4168 5.47597 32.7121 5.33423 32.0002 5.33423C31.2883 5.33423 30.5835 5.47597 29.927 5.75118C29.2704 6.0264 28.6753 6.42958 28.1762 6.93721L26.6668 8.47721H18.6668C15.7202 8.47721 13.3335 10.8465 13.3335 13.7705V45.3732C13.3335 48.2972 15.7202 50.6665 18.6668 50.6665H24.0002V53.3332H30.6668V58.6665H33.3335V53.3332H40.0002V50.6665H45.3335ZM35.4282 10.3439C35.6765 10.5973 35.973 10.7986 36.3002 10.9359C36.6274 11.0733 36.9787 11.144 37.3335 11.1439H45.3335C46.8268 11.1439 48.0002 12.3385 48.0002 13.7705V36.7172C47.6079 36.4125 47.1959 36.1341 46.7668 35.8839C44.3335 34.4679 40.8135 33.7319 36.6562 36.1852C33.2322 38.2052 30.0122 38.7519 26.5095 38.8252C24.9482 38.8585 23.3522 38.7985 21.6415 38.7332L20.9348 38.7065C19.2909 38.6364 17.6454 38.6106 16.0002 38.6292V13.7692C16.0002 12.3385 17.1735 11.1425 18.6668 11.1425H26.6668C27.0217 11.1427 27.373 11.072 27.7001 10.9346C28.0273 10.7972 28.3238 10.596 28.5722 10.3425L30.0815 8.80255C30.3322 8.54833 30.6309 8.34647 30.9603 8.20869C31.2897 8.0709 31.6431 7.99995 32.0002 7.99995C32.3572 7.99995 32.7107 8.0709 33.04 8.20869C33.3694 8.34647 33.6681 8.54833 33.9188 8.80255L35.4282 10.3439Z" fill="#343A40"/>
</svg>
