<svg width="64" height="64" viewBox="0 0 64 64" fill="none" xmlns="http://www.w3.org/2000/svg">
<path d="M36.8162 7.37993C36.1921 6.73279 35.444 6.21806 34.6165 5.8665C33.789 5.51493 32.8992 5.33374 32.0002 5.33374C31.1011 5.33374 30.2113 5.51493 29.3838 5.8665C28.5564 6.21806 27.8083 6.73279 27.1842 7.37993L26.4802 8.1106H20.0002C16.3268 8.1106 13.3335 11.0706 13.3335 14.7426V44.0359C13.3335 47.7039 16.3268 50.6666 20.0002 50.6666H24.0002V53.3333H30.6668V58.6666H33.3335V53.3333H40.0002V50.6666H44.0002C47.6735 50.6666 50.6668 47.7066 50.6668 44.0346V30.6666H48.0002V36.7186C47.6079 36.4135 47.1959 36.1346 46.7668 35.8839C44.3335 34.4679 40.8135 33.7319 36.6562 36.1853C33.2322 38.2053 30.0122 38.7519 26.5095 38.8253C24.9495 38.8586 23.3522 38.7986 21.6428 38.7333L20.9348 38.7066C19.291 38.6357 17.6455 38.609 16.0002 38.6266V14.7439C16.0002 12.5626 17.7828 10.7786 20.0002 10.7786H27.0482C27.2275 10.7784 27.4049 10.7421 27.5699 10.6718C27.7348 10.6014 27.8839 10.4985 28.0082 10.3693L29.1055 9.22926C29.4808 8.84062 29.9305 8.53153 30.4278 8.32042C30.9252 8.10932 31.4599 8.00052 32.0002 8.00052C32.5404 8.00052 33.0752 8.10932 33.5725 8.32042C34.0698 8.53153 34.5195 8.84062 34.8948 9.22926L35.9922 10.3693C36.1164 10.4985 36.2655 10.6014 36.4305 10.6718C36.5954 10.7421 36.7728 10.7784 36.9522 10.7786H44.4402C46.4135 10.7786 48.0002 12.3653 48.0002 14.3066V19.9999H50.6668V14.3053C50.6668 10.8759 47.8708 8.1106 44.4402 8.1106H37.5202L36.8162 7.37993Z" fill="#343A40"/>
<path fill-rule="evenodd" clip-rule="evenodd" d="M24.6671 18.6665C24.9264 18.6666 25.18 18.7424 25.397 18.8845C25.6139 19.0266 25.7847 19.2288 25.8884 19.4665L29.3764 27.4398C29.3848 27.4574 29.3928 27.4752 29.4004 27.4932L30.5551 30.1332C30.6839 30.4549 30.6825 30.8141 30.551 31.1347C30.4196 31.4553 30.1685 31.7122 29.8509 31.8509C29.5334 31.9895 29.1743 31.9991 28.8498 31.8776C28.5252 31.7561 28.2608 31.513 28.1124 31.1998L27.2937 29.3332H22.0377L21.2204 31.1998C21.072 31.513 20.8076 31.7561 20.4831 31.8776C20.1585 31.9991 19.7994 31.9895 19.4819 31.8509C19.1643 31.7122 18.9132 31.4553 18.7818 31.1347C18.6503 30.8141 18.6489 30.4549 18.7777 30.1332L19.9324 27.4932L19.9351 27.4865C19.9418 27.4703 19.9489 27.4543 19.9564 27.4385L23.4444 19.4652C23.5484 19.2275 23.7195 19.0254 23.9367 18.8836C24.1538 18.7417 24.4077 18.6663 24.6671 18.6665ZM26.1284 26.6665L24.6671 23.3265L23.2057 26.6665H26.1284ZM33.3337 18.6665C32.9801 18.6665 32.641 18.807 32.3909 19.057C32.1409 19.3071 32.0004 19.6462 32.0004 19.9998V30.6665C32.0004 31.0201 32.1409 31.3593 32.3909 31.6093C32.641 31.8594 32.9801 31.9998 33.3337 31.9998H37.5004C39.6977 31.9998 41.3337 30.1265 41.3337 27.9998C41.3347 27.0234 40.9888 26.0783 40.3577 25.3332C40.9888 24.588 41.3347 23.643 41.3337 22.6665C41.3337 20.5398 39.6977 18.6665 37.5004 18.6665H33.3337ZM38.6671 22.6665C38.6671 23.4852 38.0644 23.9998 37.5004 23.9998H34.6671V21.3332H37.5004C38.0644 21.3332 38.6671 21.8478 38.6671 22.6665ZM38.6671 27.9998C38.6671 27.1812 38.0644 26.6665 37.5004 26.6665H34.6671V29.3332H37.5004C38.0644 29.3332 38.6671 28.8185 38.6671 27.9998Z" fill="#343A40"/>
<path d="M42.667 25.3333C42.667 24.9796 42.8075 24.6405 43.0575 24.3904C43.3076 24.1404 43.6467 23.9999 44.0003 23.9999H45.3337V22.6666C45.3337 22.313 45.4741 21.9738 45.7242 21.7238C45.9742 21.4737 46.3134 21.3333 46.667 21.3333C47.0206 21.3333 47.3598 21.4737 47.6098 21.7238C47.8599 21.9738 48.0003 22.313 48.0003 22.6666V23.9999H49.3337C49.6873 23.9999 50.0264 24.1404 50.2765 24.3904C50.5265 24.6405 50.667 24.9796 50.667 25.3333C50.667 25.6869 50.5265 26.026 50.2765 26.2761C50.0264 26.5261 49.6873 26.6666 49.3337 26.6666H48.0003V27.9999C48.0003 28.3535 47.8599 28.6927 47.6098 28.9427C47.3598 29.1928 47.0206 29.3333 46.667 29.3333C46.3134 29.3333 45.9742 29.1928 45.7242 28.9427C45.4741 28.6927 45.3337 28.3535 45.3337 27.9999V26.6666H44.0003C43.6467 26.6666 43.3076 26.5261 43.0575 26.2761C42.8075 26.026 42.667 25.6869 42.667 25.3333Z" fill="#343A40"/>
</svg>
