<svg width="18" height="18" viewBox="0 0 18 18" fill="none" xmlns="http://www.w3.org/2000/svg">
<path d="M1.875 7.125H16.125V15C16.125 15.1989 16.046 15.3897 15.9053 15.5303C15.7647 15.671 15.5739 15.75 15.375 15.75H2.625C2.42609 15.75 2.23532 15.671 2.09467 15.5303C1.95402 15.3897 1.875 15.1989 1.875 15V7.125ZM1.875 3.375C1.875 3.17609 1.95402 2.98532 2.09467 2.84467C2.23532 2.70402 2.42609 2.625 2.625 2.625H15.375C15.5739 2.625 15.7647 2.70402 15.9053 2.84467C16.046 2.98532 16.125 3.17609 16.125 3.375V7.125H1.875V3.375Z" stroke="#8060F3" stroke-width="1.5" stroke-linejoin="round"/>
<path d="M5.25 9.75H7.5M6 1.5V4.5V1.5ZM12 1.5V4.5V1.5ZM10.5 12.75H12.75H10.5ZM5.25 12.75H7.5H5.25ZM10.5 9.75H12.75H10.5Z" stroke="#8060F3" stroke-width="1.5" stroke-linecap="round" stroke-linejoin="round"/>
</svg>
