<svg width="16" height="16" viewBox="0 0 16 16" fill="none" xmlns="http://www.w3.org/2000/svg">
<path d="M9.06083 8.00002L12.0296 5.03127C12.1705 4.89062 12.2497 4.69976 12.2499 4.50068C12.2501 4.3016 12.1712 4.1106 12.0305 3.96971C11.8899 3.82881 11.699 3.74956 11.4999 3.74938C11.3008 3.74921 11.1098 3.82812 10.969 3.96877L8.0002 6.93752L5.03145 3.96877C4.89056 3.82787 4.69946 3.74872 4.5002 3.74872C4.30095 3.74872 4.10985 3.82787 3.96895 3.96877C3.82806 4.10967 3.7489 4.30076 3.7489 4.50002C3.7489 4.69928 3.82806 4.89037 3.96895 5.03127L6.9377 8.00002L3.96895 10.9688C3.82806 11.1097 3.7489 11.3008 3.7489 11.5C3.7489 11.6993 3.82806 11.8904 3.96895 12.0313C4.10985 12.1722 4.30095 12.2513 4.5002 12.2513C4.69946 12.2513 4.89056 12.1722 5.03145 12.0313L8.0002 9.06252L10.969 12.0313C11.1098 12.1722 11.3009 12.2513 11.5002 12.2513C11.6995 12.2513 11.8906 12.1722 12.0315 12.0313C12.1723 11.8904 12.2515 11.6993 12.2515 11.5C12.2515 11.3008 12.1723 11.1097 12.0315 10.9688L9.06083 8.00002Z" fill="#8060F3"/>
</svg>
