<svg width="16" height="16" viewBox="0 0 16 16" fill="none" xmlns="http://www.w3.org/2000/svg">
<path d="M9.06095 8.00008L12.0297 5.03133C12.1706 4.89068 12.2499 4.69982 12.25 4.50074C12.2502 4.30166 12.1713 4.11066 12.0306 3.96977C11.89 3.82887 11.6991 3.74962 11.5001 3.74944C11.301 3.74927 11.11 3.82818 10.9691 3.96883L8.00032 6.93758L5.03157 3.96883C4.89068 3.82793 4.69958 3.74878 4.50032 3.74878C4.30107 3.74878 4.10997 3.82793 3.96907 3.96883C3.82818 4.10973 3.74902 4.30082 3.74902 4.50008C3.74902 4.69934 3.82818 4.89043 3.96907 5.03133L6.93782 8.00008L3.96907 10.9688C3.82818 11.1097 3.74902 11.3008 3.74902 11.5001C3.74902 11.6993 3.82818 11.8904 3.96907 12.0313C4.10997 12.1722 4.30107 12.2514 4.50032 12.2514C4.69958 12.2514 4.89068 12.1722 5.03157 12.0313L8.00032 9.06258L10.9691 12.0313C11.11 12.1722 11.3011 12.2514 11.5003 12.2514C11.6996 12.2514 11.8907 12.1722 12.0316 12.0313C12.1725 11.8904 12.2516 11.6993 12.2516 11.5001C12.2516 11.3008 12.1725 11.1097 12.0316 10.9688L9.06095 8.00008Z" fill="#F9361B"/>
</svg>
