<svg width="19" height="19" viewBox="0 0 19 19" fill="none" xmlns="http://www.w3.org/2000/svg">
<path opacity="0.3" d="M16.4904 7.125H16.625C17.9367 7.125 19 8.18832 19 9.5C19 10.8117 17.9367 11.875 16.625 11.875L16.5569 11.875C16.3518 11.8758 16.1668 11.9983 16.086 12.1869C15.9977 12.3871 16.0384 12.6119 16.1794 12.756L16.2266 12.8032C16.6725 13.2487 16.9231 13.8532 16.9231 14.4835C16.9231 15.1139 16.6725 15.7184 16.2272 16.1632C15.7817 16.6092 15.1772 16.8598 14.5469 16.8598C13.9165 16.8598 13.312 16.6092 12.8669 16.1635L12.8256 16.1222C12.6752 15.9751 12.4504 15.9343 12.2502 16.0227C12.0617 16.1034 11.9391 16.2885 11.9383 16.4904V16.625C11.9383 17.9367 10.875 19 9.56333 19C8.25166 19 7.18833 17.9367 7.18833 16.625C7.18361 16.361 7.05004 16.1743 6.80535 16.0826C6.6129 15.9977 6.38813 16.0384 6.24396 16.1794L6.19677 16.2266C5.7513 16.6725 5.14681 16.9231 4.51646 16.9231C3.88611 16.9231 3.28162 16.6725 2.83677 16.2272C2.3908 15.7817 2.14021 15.1772 2.14021 14.5469C2.14021 13.9165 2.3908 13.312 2.83646 12.8669L2.87782 12.8256C3.02492 12.6752 3.06567 12.4504 2.97735 12.2502C2.89655 12.0617 2.71152 11.9391 2.50958 11.9383H2.375C1.06332 11.9383 0 10.875 0 9.56333C0 8.25166 1.06332 7.18833 2.375 7.18833C2.63898 7.18361 2.82572 7.05004 2.9174 6.80535C3.00234 6.6129 2.96158 6.38813 2.82062 6.24396L2.77344 6.19677C2.32746 5.7513 2.07688 5.14681 2.07688 4.51646C2.07688 3.88611 2.32746 3.28162 2.77281 2.83677C3.21829 2.3908 3.82278 2.14021 4.45312 2.14021C5.08347 2.14021 5.68796 2.3908 6.13313 2.83646L6.17442 2.87782C6.3248 3.02492 6.54957 3.06567 6.74202 2.98073L6.85567 2.95677C7.01988 2.86783 7.12425 2.6959 7.125 2.50958V2.375C7.125 1.06332 8.18832 0 9.5 0C10.8117 0 11.875 1.06332 11.875 2.375L11.875 2.44309C11.8758 2.64819 11.9983 2.83322 12.1946 2.9174C12.3871 3.00234 12.6119 2.96158 12.756 2.82062L12.8032 2.77344C13.2487 2.32746 13.8532 2.07688 14.4835 2.07688C15.1139 2.07688 15.7184 2.32746 16.1632 2.77281C16.6092 3.21829 16.8598 3.82278 16.8598 4.45312C16.8598 5.08347 16.6092 5.68796 16.1635 6.13313L16.1222 6.17442C15.9751 6.3248 15.9343 6.54957 16.0193 6.74202L16.0432 6.85567C16.1322 7.01988 16.3041 7.12425 16.4904 7.125Z" fill="#F9361B"/>
<path fill-rule="evenodd" clip-rule="evenodd" d="M9.49992 12.6667C11.2488 12.6667 12.6666 11.2489 12.6666 9.5C12.6666 7.7511 11.2488 6.33333 9.49992 6.33333C7.75102 6.33333 6.33325 7.7511 6.33325 9.5C6.33325 11.2489 7.75102 12.6667 9.49992 12.6667Z" fill="#F9361B"/>
</svg>
