<svg width="24" height="24" viewBox="0 0 24 24" fill="none" xmlns="http://www.w3.org/2000/svg">
<path d="M12.2231 11.641L12.0001 11.861L11.7761 11.641C11.3599 11.2301 10.7985 10.9997 10.2136 10.9997C9.62869 10.9997 9.06732 11.2301 8.65109 11.641C8.44451 11.8397 8.28017 12.0781 8.16792 12.3419C8.05566 12.6057 7.9978 12.8894 7.9978 13.176C7.9978 13.4627 8.05566 13.7464 8.16792 14.0101C8.28017 14.2739 8.44451 14.5123 8.65109 14.711L12.0001 18L15.3491 14.711C15.5557 14.5123 15.72 14.2739 15.8323 14.0101C15.9445 13.7464 16.0024 13.4627 16.0024 13.176C16.0024 12.8894 15.9445 12.6057 15.8323 12.3419C15.72 12.0781 15.5557 11.8397 15.3491 11.641C14.9327 11.23 14.3712 10.9996 13.7861 10.9996C13.201 10.9996 12.6395 11.23 12.2231 11.641Z" fill="#F9361B"/>
<path opacity="0.4" d="M21.707 11.293L12.707 2.29299C12.6142 2.20004 12.504 2.1263 12.3827 2.07599C12.2614 2.02568 12.1314 1.99979 12 1.99979C11.8687 1.99979 11.7387 2.02568 11.6173 2.07599C11.496 2.1263 11.3858 2.20004 11.293 2.29299L2.29303 11.293C2.15322 11.4328 2.05802 11.611 2.01945 11.805C1.98088 11.9989 2.00068 12.1999 2.07635 12.3826C2.15202 12.5653 2.28016 12.7215 2.44457 12.8314C2.60898 12.9413 2.80228 12.9999 3.00003 13H4.00003V20C4.00003 21.103 4.89703 22 6.00003 22H18C19.103 22 20 21.103 20 20V13H21C21.1978 12.9999 21.3911 12.9413 21.5555 12.8314C21.7199 12.7215 21.848 12.5653 21.9237 12.3826C21.9994 12.1999 22.0192 11.9989 21.9806 11.805C21.942 11.611 21.8468 11.4328 21.707 11.293ZM18.001 20H6.00003V10.415L12 4.41499L18 10.415V15L18.001 20Z" fill="#F9361B"/>
</svg>
