<svg width="16" height="16" viewBox="0 0 16 16" fill="none" xmlns="http://www.w3.org/2000/svg">
<path fill-rule="evenodd" clip-rule="evenodd" d="M3.9999 7.2001V5.6001C3.9999 4.53923 4.42133 3.52182 5.17148 2.77167C5.92162 2.02153 6.93904 1.6001 7.9999 1.6001C9.06077 1.6001 10.0782 2.02153 10.8283 2.77167C11.5785 3.52182 11.9999 4.53923 11.9999 5.6001V7.2001C12.4242 7.2001 12.8312 7.36867 13.1313 7.66873C13.4313 7.96879 13.5999 8.37575 13.5999 8.8001V12.8001C13.5999 13.2244 13.4313 13.6314 13.1313 13.9315C12.8312 14.2315 12.4242 14.4001 11.9999 14.4001H3.9999C3.57556 14.4001 3.16859 14.2315 2.86853 13.9315C2.56847 13.6314 2.3999 13.2244 2.3999 12.8001V8.8001C2.3999 8.37575 2.56847 7.96879 2.86853 7.66873C3.16859 7.36867 3.57556 7.2001 3.9999 7.2001V7.2001ZM10.3999 5.6001V7.2001H5.5999V5.6001C5.5999 4.96358 5.85276 4.35313 6.30285 3.90304C6.75293 3.45295 7.36338 3.2001 7.9999 3.2001C8.63642 3.2001 9.24687 3.45295 9.69696 3.90304C10.147 4.35313 10.3999 4.96358 10.3999 5.6001V5.6001Z" fill="#F9361B"/>
</svg>
