<svg width="16" height="16" viewBox="0 0 16 16" fill="none" xmlns="http://www.w3.org/2000/svg">
<path d="M7.9999 1.6001C6.93904 1.6001 5.92162 2.02152 5.17148 2.77167C4.42133 3.52182 3.9999 4.53923 3.9999 5.6001V7.2001C3.57556 7.2001 3.16859 7.36867 2.86853 7.66873C2.56847 7.96879 2.3999 8.37575 2.3999 8.8001V12.8001C2.3999 13.2244 2.56847 13.6314 2.86853 13.9315C3.16859 14.2315 3.57556 14.4001 3.9999 14.4001H11.9999C12.4242 14.4001 12.8312 14.2315 13.1313 13.9315C13.4313 13.6314 13.5999 13.2244 13.5999 12.8001V8.8001C13.5999 8.37575 13.4313 7.96879 13.1313 7.66873C12.8312 7.36867 12.4242 7.2001 11.9999 7.2001H5.5999V5.6001C5.5997 5.01581 5.81266 4.45152 6.19883 4.01304C6.58501 3.57457 7.11788 3.29203 7.69751 3.21841C8.27714 3.14479 8.86371 3.28515 9.34724 3.61316C9.83077 3.94118 10.178 4.43431 10.3239 5.0001C10.3769 5.20559 10.5094 5.38159 10.6923 5.48939C10.7828 5.54276 10.8829 5.57778 10.987 5.59246C11.091 5.60713 11.197 5.60116 11.2987 5.5749C11.4005 5.54863 11.496 5.50259 11.58 5.43938C11.6639 5.37618 11.7346 5.29706 11.788 5.20654C11.8414 5.11602 11.8764 5.01588 11.8911 4.91182C11.9057 4.80777 11.8998 4.70185 11.8735 4.6001C11.6515 3.74151 11.1506 2.98098 10.4495 2.43797C9.74837 1.89496 8.88672 1.60024 7.9999 1.6001Z" fill="#8060F3"/>
</svg>
