<svg width="18" height="18" viewBox="0 0 18 18" fill="none" xmlns="http://www.w3.org/2000/svg">
<path opacity="0.3" d="M7.19926 4.5C7.19926 4.99706 6.7965 5.4 6.29965 5.4C5.80281 5.4 5.40004 4.99706 5.40004 4.5V3.6C5.40004 1.61177 7.01112 0 8.99848 0H14.3954C16.3827 0 17.9938 1.61177 17.9938 3.6V14.4C17.9938 16.3882 16.3827 18 14.3954 18H8.99224C7.00487 18 5.3938 16.3882 5.3938 14.4V13.5C5.3938 13.0029 5.79657 12.6 6.29341 12.6C6.79025 12.6 7.19302 13.0029 7.19302 13.5V14.4C7.19302 15.3941 7.99856 16.2 8.99224 16.2H14.3954C15.389 16.2 16.1946 15.3941 16.1946 14.4V3.6C16.1946 2.60589 15.389 1.8 14.3954 1.8H8.99848C8.0048 1.8 7.19926 2.60589 7.19926 3.6V4.5Z" fill="#F9361B"/>
<rect opacity="0.3" width="1.8" height="10.8" rx="0.9" transform="matrix(0 1 1 0 1.79993 8.09998)" fill="#F9361B"/>
<path d="M4.23652 6.93637C4.58799 6.5849 4.58799 6.01505 4.23652 5.66358C3.88505 5.31211 3.3152 5.31211 2.96373 5.66358L0.263726 8.36358C-0.0877457 8.71505 -0.0877457 9.2849 0.263726 9.63637L2.96373 12.3364C3.3152 12.6878 3.88505 12.6878 4.23652 12.3364C4.58799 11.9849 4.58799 11.4151 4.23652 11.0636L2.17291 8.99998L4.23652 6.93637Z" fill="#F9361B"/>
</svg>
