<svg width="18" height="18" viewBox="0 0 18 18" fill="none" xmlns="http://www.w3.org/2000/svg">
<path d="M9 11C10.6545 11 12 9.6545 12 8C12 6.3455 10.6545 5 9 5C7.3455 5 6 6.3455 6 8C6 9.6545 7.3455 11 9 11ZM9 6.5C9.82725 6.5 10.5 7.17275 10.5 8C10.5 8.82725 9.82725 9.5 9 9.5C8.17275 9.5 7.5 8.82725 7.5 8C7.5 7.17275 8.17275 6.5 9 6.5Z" fill="#F9361B"/>
<path opacity="0.4" d="M8.49251 17.8327C8.6406 17.9415 8.81802 18 9 18C9.18198 18 9.35941 17.9415 9.50749 17.8327C9.77349 17.6392 16.0253 12.9961 15.9999 7.20006C15.9999 3.23013 12.8596 0 9 0C5.14042 0 2.00008 3.23013 2.00008 7.19556C1.9747 12.9961 8.22651 17.6392 8.49251 17.8327ZM9 1.80001C11.8953 1.80001 14.2499 4.22193 14.2499 7.20456C14.2683 11.1988 10.4105 14.7853 9 15.9616C7.59039 14.7844 3.73168 11.197 3.75006 7.20006C3.75006 4.22193 6.10466 1.80001 9 1.80001Z" fill="#F9361B"/>
</svg>
