<svg width="28" height="41" viewBox="0 0 28 41" fill="none" xmlns="http://www.w3.org/2000/svg">
<path d="M28 20.5C28 24.0899 25.0899 25.5 21.5 25.5C17.9101 25.5 15 24.0899 15 20.5C15 16.9101 17.9101 14 21.5 14C25.0899 14 28 16.9101 28 20.5Z" fill="#F9361B"/>
<rect x="2" y="17" width="25" height="8" fill="#F9361B"/>
<path d="M16 17C15.2 17.4 12.5 17.6667 11.5 17.5L14.5 17L16 16.5L20.5 14.5C20 15 16.8 16.6 16 17Z" stroke="#F9361B"/>
<rect x="1" y="23" width="25" height="10" fill="#F9361B"/>
<path fill-rule="evenodd" clip-rule="evenodd" d="M8 36.2617H13V40.2617H15V36.2617H20V34.2617H24C25.0609 34.2617 26.0783 33.8403 26.8284 33.0901C27.5786 32.34 28 31.3226 28 30.2617V6.37571C28 5.31484 27.5786 4.29743 26.8284 3.54728C26.0783 2.79713 25.0609 2.37571 24 2.37571H18L16.868 1.21171C16.4952 0.828274 16.0493 0.523483 15.5567 0.315358C15.0641 0.107233 14.5348 0 14 0C13.4652 0 12.9359 0.107233 12.4433 0.315358C11.9507 0.523483 11.5048 0.828274 11.132 1.21171L10 2.37571H4C2.93913 2.37571 1.92172 2.79713 1.17157 3.54728C0.421427 4.29743 0 5.31484 0 6.37571V30.2617C0 31.3226 0.421427 32.34 1.17157 33.0901C1.92172 33.8403 2.93913 34.2617 4 34.2617H8V36.2617ZM16.566 3.76971C16.7524 3.96145 16.9753 4.11387 17.2216 4.21796C17.4679 4.32205 17.7326 4.37569 18 4.37571H24C24.5304 4.37571 25.0391 4.58642 25.4142 4.96149C25.7893 5.33657 26 5.84527 26 6.37571V23.8017C25.7058 23.5728 25.3968 23.3637 25.075 23.1757C23.25 22.1137 20.611 21.5617 17.492 23.4017C14.924 24.9167 12.509 25.3267 9.882 25.3817C8.712 25.4067 7.514 25.3617 6.231 25.3127C6.05434 25.3059 5.87767 25.2992 5.701 25.2927C4.4681 25.2392 3.23399 25.2188 2 25.2317V6.37671C2 5.84627 2.21071 5.33757 2.58579 4.96249C2.96086 4.58742 3.46957 4.37671 4 4.37671H10C10.2674 4.37669 10.5321 4.32305 10.7784 4.21896C11.0247 4.11487 11.2476 3.96245 11.434 3.77071L12.566 2.60671C12.7524 2.41499 12.9753 2.2626 13.2216 2.15853C13.4679 2.05447 13.7326 2.00085 14 2.00085C14.2674 2.00085 14.5321 2.05447 14.7784 2.15853C15.0247 2.2626 15.2476 2.41499 15.434 2.60671L16.566 3.76971ZM2 27.2327V30.2617C2 30.7921 2.21071 31.3008 2.58579 31.6759C2.96086 32.051 3.46957 32.2617 4 32.2617H24C24.5304 32.2617 25.0391 32.051 25.4142 31.6759C25.7893 31.3008 26 30.7921 26 30.2617V26.5917C25.4657 25.915 24.8111 25.3427 24.069 24.9037C22.775 24.1507 20.915 23.7037 18.509 25.1237C15.551 26.8677 12.766 27.3207 9.924 27.3807C8.69 27.4067 7.43 27.3587 6.154 27.3107L5.627 27.2907C4.41875 27.2384 3.2093 27.219 2 27.2327Z" fill="#343A40"/>
<rect x="2" y="22" width="24" height="6" fill="#F9361B"/>
</svg>
