<svg width="16" height="16" viewBox="0 0 16 16" fill="none" xmlns="http://www.w3.org/2000/svg">
<path d="M9.33337 7.33337V10.6667M2.66671 4.00004H13.3334L12.28 13.48C12.2439 13.8063 12.0888 14.1078 11.8442 14.3267C11.5997 14.5457 11.2829 14.6667 10.9547 14.6667H5.04537C4.71713 14.6667 4.40042 14.5457 4.15587 14.3267C3.91133 14.1078 3.75615 13.8063 3.72004 13.48L2.66671 4.00004ZM4.89671 2.09804C5.00454 1.86935 5.17518 1.67604 5.38871 1.54065C5.60224 1.40526 5.84987 1.33337 6.10271 1.33337H9.89737C10.1503 1.33324 10.3981 1.40507 10.6118 1.54047C10.8254 1.67587 10.9962 1.86925 11.104 2.09804L12 4.00004H4.00004L4.89671 2.09804V2.09804ZM1.33337 4.00004H14.6667H1.33337ZM6.66671 7.33337V10.6667V7.33337Z" stroke="#F9361B" stroke-width="1.33333" stroke-linecap="round" stroke-linejoin="round"/>
</svg>
