<svg width="16" height="16" viewBox="0 0 16 16" fill="none" xmlns="http://www.w3.org/2000/svg">
<path d="M7.3333 9.99063C7.3333 10.1674 7.40354 10.337 7.52857 10.462C7.65359 10.5871 7.82316 10.6573 7.99997 10.6573C8.17678 10.6573 8.34635 10.5871 8.47138 10.462C8.5964 10.337 8.66664 10.1674 8.66664 9.99063V5.21863L10.8286 7.38063L11.7713 6.43796L7.99997 2.66663L4.22864 6.43796L5.1713 7.38063L7.3333 5.21996V9.99129V9.99063Z" fill="#8060F3"/>
<path d="M2.66663 9.33325H3.99996V11.9999H12V9.33325H13.3333V11.9999C13.3333 12.3535 13.1928 12.6927 12.9428 12.9427C12.6927 13.1928 12.3536 13.3333 12 13.3333H3.99996C3.64634 13.3333 3.3072 13.1928 3.05715 12.9427C2.8071 12.6927 2.66663 12.3535 2.66663 11.9999V9.33325Z" fill="#8060F3"/>
</svg>
